<svg xmlns="http://www.w3.org/2000/svg" width="2400" height="620" viewBox="0 0 2400 620" role="img" aria-labelledby="title desc">
  <title id="title">C# / .NET ナレッジベース</title>
  <desc id="desc">基礎編、実務編、応用・発展編の3段階でC#と.NETを学ぶロードマップを示すREADMEバナー。</desc>
  <defs>
    <linearGradient id="bg" x1="0" y1="0" x2="1" y2="1">
      <stop offset="0" stop-color="#f7fcfd"/>
      <stop offset="0.48" stop-color="#eef9fb"/>
      <stop offset="1" stop-color="#dff4f8"/>
    </linearGradient>
    <linearGradient id="tealBlue" x1="0" y1="0" x2="1" y2="0">
      <stop offset="0" stop-color="#00a99d"/>
      <stop offset="1" stop-color="#42a5f5"/>
    </linearGradient>
    <filter id="softShadow" x="-20%" y="-20%" width="140%" height="150%">
      <feDropShadow dx="0" dy="12" stdDeviation="18" flood-color="#156c78" flood-opacity="0.12"/>
    </filter>
    <style>
      .title { font: 800 90px "Noto Sans JP", "Yu Gothic", Meiryo, sans-serif; letter-spacing: 0; }
      .lead { font: 700 38px "Noto Sans JP", "Yu Gothic", Meiryo, sans-serif; letter-spacing: 0; }
      .card-title { font: 800 30px "Noto Sans JP", "Yu Gothic", Meiryo, sans-serif; letter-spacing: 0; }
      .body { font: 600 22px "Noto Sans JP", "Yu Gothic", Meiryo, sans-serif; letter-spacing: 0; }
      .caption { font: 700 21px "Noto Sans JP", "Yu Gothic", Meiryo, sans-serif; letter-spacing: 0; }
      .navy { fill: #24435f; }
      .teal { fill: #00a99d; }
      .blue { fill: #42a5f5; }
      .muted { fill: #456176; }
    </style>
  </defs>

  <rect width="2400" height="620" fill="url(#bg)"/>
  <path d="M0 278 C230 260 296 372 507 377 C765 383 789 298 1034 323 C1275 348 1280 420 1512 404 C1772 385 1760 226 2065 164 C2195 137 2297 148 2400 175 L2400 620 L0 620 Z" fill="#d9f3f7" opacity="0.62"/>
  <path d="M0 455 C265 472 420 534 664 496 C875 463 911 400 1102 439 C1322 484 1343 520 1552 483 C1765 446 1810 490 1975 510 C2135 530 2262 503 2400 466 L2400 620 L0 620 Z" fill="#c7eef4" opacity="0.58"/>

  <g transform="translate(128 100)">
    <path d="M0 6 L11 34 L39 45 L11 56 L0 84 L-11 56 L-39 45 L-11 34 Z" fill="#29b6f6" opacity="0.9"/>
    <path d="M58 67 L66 88 L87 96 L66 104 L58 125 L50 104 L29 96 L50 88 Z" fill="#42a5f5" opacity="0.7"/>
  </g>

  <text x="220" y="142" class="title teal">C# /.NET</text>
  <text x="780" y="142" class="title navy">ナレッジベース</text>
  <text x="225" y="242" class="lead teal">学習ロードマップ</text>
  <text x="575" y="242" class="lead navy">で段階的に身につく</text>

  <path d="M360 480 C548 507 648 485 774 438 C912 387 1013 390 1128 438 C1264 495 1382 492 1519 436 C1636 389 1764 399 1870 450" fill="none" stroke="url(#tealBlue)" stroke-width="18" stroke-linecap="round" opacity="0.9"/>
  <circle cx="610" cy="486" r="22" fill="#ffffff" stroke="#00a99d" stroke-width="10"/>
  <circle cx="1195" cy="472" r="22" fill="#ffffff" stroke="#42a5f5" stroke-width="10"/>
  <circle cx="1710" cy="472" r="22" fill="#ffffff" stroke="#00a99d" stroke-width="10"/>

  <g filter="url(#softShadow)">
    <rect x="360" y="290" width="360" height="190" rx="34" fill="#ffffff" opacity="0.95"/>
    <circle cx="435" cy="290" r="28" fill="#00a99d"/>
    <text x="424" y="302" font-family="Arial, sans-serif" font-size="30" font-weight="800" fill="#ffffff">1</text>
    <circle cx="470" cy="383" r="67" fill="#dff7f5"/>
    <path d="M423 355 Q447 343 471 355 L471 424 Q447 410 423 424 Z" fill="none" stroke="#00a99d" stroke-width="9" stroke-linejoin="round"/>
    <path d="M471 355 Q495 343 519 355 L519 424 Q495 410 471 424 Z" fill="none" stroke="#00a99d" stroke-width="9" stroke-linejoin="round"/>
    <text x="570" y="356" class="card-title teal">基礎編</text>
    <text x="570" y="405" class="body navy">C# の基礎文法や</text>
    <text x="570" y="438" class="body navy">プログラミングの基本</text>
  </g>

  <g filter="url(#softShadow)">
    <rect x="860" y="290" width="360" height="190" rx="34" fill="#ffffff" opacity="0.95"/>
    <circle cx="935" cy="290" r="28" fill="#42a5f5"/>
    <text x="924" y="302" font-family="Arial, sans-serif" font-size="30" font-weight="800" fill="#ffffff">2</text>
    <circle cx="970" cy="383" r="67" fill="#e3f2fd"/>
    <rect x="928" y="342" width="84" height="60" rx="8" fill="#2d5f91"/>
    <rect x="938" y="352" width="64" height="40" rx="4" fill="#42a5f5" opacity="0.72"/>
    <path d="M952 373 L940 384 L952 395" fill="none" stroke="#ffffff" stroke-width="6" stroke-linecap="round" stroke-linejoin="round"/>
    <path d="M988 373 L1000 384 L988 395" fill="none" stroke="#ffffff" stroke-width="6" stroke-linecap="round" stroke-linejoin="round"/>
    <path d="M977 368 L963 401" fill="none" stroke="#ffffff" stroke-width="6" stroke-linecap="round"/>
    <rect x="918" y="412" width="104" height="13" rx="6" fill="#8fb8d8"/>
    <text x="1070" y="356" class="card-title blue">実務編</text>
    <text x="1070" y="405" class="body navy">Web API・テスト・</text>
    <text x="1070" y="438" class="body navy">データアクセスを習得</text>
  </g>

  <g filter="url(#softShadow)">
    <rect x="1360" y="290" width="420" height="190" rx="34" fill="#ffffff" opacity="0.95"/>
    <circle cx="1435" cy="290" r="28" fill="#00a99d"/>
    <text x="1424" y="302" font-family="Arial, sans-serif" font-size="30" font-weight="800" fill="#ffffff">3</text>
    <circle cx="1470" cy="383" r="67" fill="#dff7f5"/>
    <path d="M1430 415 C1444 372 1470 343 1511 331 C1503 373 1475 403 1430 415 Z" fill="#20a5d8"/>
    <circle cx="1481" cy="366" r="10" fill="#ffffff"/>
    <path d="M1448 395 L1420 421" stroke="#00a99d" stroke-width="10" stroke-linecap="round"/>
    <path d="M1510 331 L1531 312" stroke="#42a5f5" stroke-width="10" stroke-linecap="round"/>
    <text x="1570" y="356" class="card-title teal">応用・発展編</text>
    <text x="1570" y="405" class="body navy">設計パターンや</text>
    <text x="1570" y="438" class="body navy">高度なテクニックへ</text>
  </g>

  <g transform="translate(2050 278)" opacity="0.9">
    <path d="M0 92 C60 60 92 18 120 -42" fill="none" stroke="#42c6c0" stroke-width="18" stroke-linecap="round"/>
    <path d="M107 -35 L135 -70 L145 -25 Z" fill="#42c6c0"/>
    <rect x="130" y="120" width="250" height="138" rx="14" fill="#ffffff" opacity="0.82"/>
    <rect x="146" y="138" width="218" height="95" rx="8" fill="#153b59"/>
    <path d="M176 162 H302 M176 184 H330 M176 206 H284" stroke="#00c2b8" stroke-width="8" stroke-linecap="round"/>
    <path d="M130 258 H380 L330 286 H92 Z" fill="#b6ddec"/>
  </g>

  <g transform="translate(260 565)">
    <path d="M0 -28 Q22 -38 44 -28 L44 8 Q22 -2 0 8 Z" fill="none" stroke="#00a99d" stroke-width="6"/>
    <path d="M44 -28 Q66 -38 88 -28 L88 8 Q66 -2 44 8 Z" fill="none" stroke="#00a99d" stroke-width="6"/>
    <text x="112" y="0" class="caption muted">初心者にやさしい解説</text>
    <text x="490" y="0" class="caption muted">|</text>
    <text x="555" y="0" class="caption blue">&lt;/&gt;</text>
    <text x="625" y="0" class="caption muted">サンプルコード付き</text>
    <text x="1040" y="0" class="caption muted">|</text>
    <circle cx="1120" cy="-10" r="24" fill="none" stroke="#00a99d" stroke-width="6"/>
    <path d="M1108 -10 L1118 2 L1135 -18" fill="none" stroke="#00a99d" stroke-width="6" stroke-linecap="round" stroke-linejoin="round"/>
    <text x="1165" y="0" class="caption muted">実務に役立つ内容</text>
    <text x="1535" y="0" class="caption muted">|</text>
    <path d="M1610 12 V-18 H1630 V12 Z M1642 12 V-36 H1662 V12 Z M1674 12 V-56 H1694 V12 Z" fill="#42a5f5"/>
    <text x="1725" y="0" class="caption muted">継続的にアップデート</text>
  </g>
</svg>
